<?xml version="1.0" standalone="no"?>
<!DOCTYPE svg PUBLIC "-//W3C//DTD SVG 20010904//EN"
 "http://www.w3.org/TR/2001/REC-SVG-20010904/DTD/svg10.dtd">
<svg version="1.0" xmlns="http://www.w3.org/2000/svg"
 width="16.000000pt" height="16.000000pt" viewBox="0 0 16.000000 16.000000"
 preserveAspectRatio="xMidYMid meet">
<metadata>
Created by potrace 1.11, written by Peter Selinger 2001-2013
</metadata>
<g transform="translate(0.000000,16.000000) scale(0.004000,-0.004000)"
fill="#000000" stroke="none">
<path d="M2450 3741 c-87 -33 -63 -25 -385 -139 -224 -80 -252 -88 -267 -75
-24 22 -53 13 -53 -17 0 -22 -10 -29 -94 -62 -57 -23 -108 -36 -130 -35 -30 2
-37 -2 -39 -19 -2 -14 -20 -29 -54 -45 -29 -13 -70 -37 -92 -53 -29 -21 -51
-29 -73 -28 -30 2 -33 0 -33 -24 0 -20 -18 -47 -67 -98 -38 -39 -74 -72 -80
-74 -7 -2 -13 -9 -13 -15 -1 -7 -28 -43 -60 -82 -47 -53 -66 -69 -88 -70 -24
0 -27 -3 -25 -33 1 -30 -3 -35 -41 -52 -101 -43 -113 -164 -26 -263 50 -56
111 -87 176 -88 43 0 46 -1 24 -10 -32 -13 -91 -4 -141 21 l-39 20 -33 -36
-33 -37 -36 32 c-52 46 -57 76 -17 117 30 31 32 38 30 91 -1 36 4 69 14 88
l15 30 -22 -25 c-13 -14 -35 -40 -49 -57 -14 -17 -40 -38 -56 -47 -17 -8 -46
-33 -64 -54 -21 -25 -81 -65 -159 -109 -107 -60 -135 -71 -191 -77 -57 -6 -71
-12 -97 -39 -66 -69 -142 -272 -142 -378 0 -58 2 -61 43 -99 38 -36 148 -89
218 -105 l26 -6 20 -227 c12 -142 17 -238 11 -257 -8 -31 5 -171 22 -236 6
-23 27 -52 53 -75 l42 -39 3 56 3 55 77 0 c42 -1 89 2 105 7 l27 7 0 -55 c0
-30 4 -55 9 -55 18 0 63 44 81 81 11 21 20 58 20 81 l0 43 45 -83 c125 -232
334 -465 545 -605 278 -184 553 -273 878 -284 181 -7 321 7 478 47 624 160
1100 659 1234 1295 27 131 38 394 20 531 -67 539 -385 1006 -865 1273 -81 45
-295 135 -352 148 -13 3 -23 11 -23 19 0 7 -10 44 -22 81 -38 118 -88 174
-155 172 -15 0 -62 -13 -103 -28z m59 -178 c6 -20 9 -37 8 -38 -19 -11 -159
-56 -163 -52 -3 3 -7 20 -7 38 -2 32 0 34 68 60 39 15 73 27 77 28 4 1 12 -16
17 -36z m181 -22 c0 -9 -31 -22 -92 -41 -16 -5 -28 -5 -28 0 0 6 55 30 118 49
1 1 2 -3 2 -8z m-405 -67 c6 -32 6 -32 -62 -55 -37 -13 -75 -23 -84 -22 -10 1
-55 -11 -102 -26 -75 -26 -87 -28 -98 -14 -16 19 -10 23 97 59 46 16 84 33 84
39 0 12 142 65 151 56 4 -3 10 -20 14 -37z m-445 -40 c46 -61 49 -84 4 -31
-68 79 -72 87 -55 87 5 0 28 -25 51 -56z m774 -30 c10 -25 1 -27 -19 -4 -15
17 -16 20 -3 20 9 0 19 -7 22 -16z m-469 -26 c14 -44 10 -49 -62 -77 -68 -27
-73 -28 -88 -11 -8 9 -15 21 -15 26 0 9 130 71 153 73 4 1 10 -5 12 -11z
m-591 -23 c12 -8 38 -34 57 -57 l34 -43 -30 22 c-36 25 -102 93 -92 93 4 0 18
-7 31 -15z m319 -20 c8 -18 9 -18 -92 -49 -57 -18 -88 -23 -94 -17 -14 14 -12
16 78 50 93 35 101 36 108 16z m67 -87 c0 -4 -34 -25 -75 -45 -69 -34 -76 -36
-91 -21 -23 22 -13 33 64 72 61 31 68 33 85 19 9 -9 17 -20 17 -25z m-317 -5
c4 -3 -27 -21 -69 -39 -42 -19 -82 -39 -90 -45 -8 -7 -19 -7 -29 -1 -15 8 -14
11 8 25 33 21 138 66 158 67 9 0 19 -3 22 -7z m-310 -35 c40 -27 100 -78 92
-78 -12 0 -125 76 -130 87 -6 18 2 16 38 -9z m401 -57 c17 -19 17 -20 -6 -34
-76 -49 -149 -69 -148 -40 0 8 119 91 131 92 3 1 14 -8 23 -18z m-332 -41 c1
-3 -26 -31 -60 -63 -82 -79 -105 -66 -26 14 51 51 81 68 86 49z m-187 -117
c31 -20 53 -38 51 -40 -5 -5 -93 39 -121 61 -18 14 -18 15 -2 16 9 0 42 -16
72 -37z m319 29 c2 -4 -22 -31 -54 -59 -50 -45 -60 -50 -75 -39 -16 11 -12 17
41 59 58 46 78 55 88 39z m1476 -12 c0 -11 -4 -20 -9 -20 -14 0 -23 18 -16 30
10 17 25 11 25 -10z m220 5 c17 -20 5 -45 -20 -45 -23 0 -35 22 -26 45 7 19
30 19 46 0z m-2002 -74 c-7 -19 -109 -123 -115 -117 -6 6 7 23 71 94 28 30 52
43 44 23z m760 -13 c7 -7 12 -27 12 -45 0 -30 -3 -33 -30 -33 -23 0 -30 4 -30
20 0 24 -41 28 -59 6 -17 -21 -3 -44 35 -56 19 -7 48 -23 64 -37 39 -32 42
-88 6 -130 -22 -25 -31 -28 -83 -27 -80 0 -103 14 -103 64 0 38 2 40 29 40 23
0 30 -5 33 -22 2 -19 9 -23 38 -23 29 0 36 4 38 23 3 19 -5 26 -50 46 -59 26
-72 38 -81 75 -7 30 15 85 40 100 25 14 126 14 141 -1z m283 -7 c21 -17 24
-28 27 -124 4 -93 6 -106 23 -110 13 -3 19 -14 19 -31 0 -24 -3 -26 -43 -26
-24 0 -48 5 -53 10 -8 8 -20 6 -40 -6 -61 -35 -134 4 -136 73 -2 68 30 98 117
110 34 4 45 10 45 24 0 31 -30 52 -64 44 -61 -14 -71 -12 -74 17 -4 31 6 35
94 37 47 1 67 -4 85 -18z m622 -9 c19 -20 30 -46 36 -83 5 -30 7 -57 4 -61 -2
-5 -44 -8 -92 -8 l-88 0 5 -26 c2 -14 16 -33 29 -41 21 -14 32 -15 71 -4 48
13 62 6 62 -31 0 -22 -70 -42 -123 -35 -78 11 -117 62 -117 157 0 104 47 160
134 160 44 0 56 -4 79 -28z m-418 -92 c20 -72 32 -104 37 -93 3 10 19 60 34
111 l27 92 44 0 c39 0 43 -2 43 -24 0 -14 -7 -26 -18 -28 -13 -4 -30 -41 -61
-132 l-43 -126 -33 0 c-37 0 -42 9 -96 179 -16 49 -30 76 -41 79 -11 2 -18 14
-18 28 0 22 4 24 48 24 l48 0 29 -110z m1010 39 c0 -28 -23 -32 -39 -6 -8 14
-8 20 4 27 22 14 35 6 35 -21z m-2128 13 c9 -6 -2 -24 -38 -65 -52 -58 -63
-64 -89 -47 -12 8 -5 19 40 65 55 56 65 61 87 47z m-320 -39 c35 -21 59 -39
54 -41 -13 -4 -131 58 -131 69 0 15 10 11 77 -28z m0 -105 c-78 -93 -126 -142
-127 -131 0 19 149 187 158 178 3 -2 -11 -24 -31 -47z m135 -73 c-20 -24 -45
-55 -55 -69 -21 -31 -62 -50 -82 -38 -11 6 3 27 56 89 65 77 71 82 94 71 l25
-11 -38 -42z m-355 18 c-3 -10 -5 -4 -5 12 0 17 2 24 5 18 2 -7 2 -21 0 -30z
m427 1 c18 -7 12 -24 -10 -24 -8 0 -14 7 -14 15 0 17 2 18 24 9z m-374 -85 c0
18 25 13 45 -9 13 -15 15 -24 8 -31 -13 -13 -40 -1 -68 32 -15 18 -16 20 -2
10 11 -9 17 -10 17 -2z m636 -54 c32 -24 33 -24 39 -5 5 15 15 20 41 20 l34 0
0 -145 0 -145 -38 0 -38 0 -12 77 c-14 87 -31 120 -67 129 -60 15 -83 -24 -97
-157 -5 -56 -8 -144 -6 -194 l3 -91 43 -38 c43 -40 52 -68 32 -107 -9 -16 -7
-19 14 -19 54 0 76 49 76 166 l0 84 46 0 47 0 -5 -103 c-7 -164 -53 -227 -170
-235 -42 -3 -67 -10 -75 -21 -10 -14 -19 -9 -70 40 -86 81 -217 178 -308 227
-44 24 -69 40 -55 36 38 -10 159 -72 220 -114 69 -46 80 -52 80 -47 0 3 -40
35 -90 72 -49 37 -90 69 -90 72 0 3 20 28 45 56 52 60 54 57 -55 116 -109 59
-73 49 47 -13 115 -59 113 -60 113 37 1 159 68 299 156 327 43 14 104 2 140
-25z m2026 25 c21 -6 51 -22 68 -36 l30 -26 11 26 c10 20 19 26 46 26 l33 0 0
-140 0 -140 -40 0 c-32 0 -40 4 -40 18 0 45 -34 128 -65 159 -58 58 -145 36
-145 -38 0 -48 14 -64 118 -138 115 -82 154 -121 181 -181 47 -104 11 -250
-74 -297 -53 -30 -140 -31 -195 -3 -21 11 -41 24 -45 30 -10 16 -21 12 -33
-15 -9 -19 -19 -25 -42 -25 l-30 0 0 166 0 165 38 -3 c33 -3 37 -6 40 -33 15
-147 110 -253 190 -211 33 17 42 34 42 78 0 50 -30 87 -135 163 -158 116 -195
165 -195 260 0 84 42 152 115 186 46 21 75 23 127 9z m-1382 -141 l0 -130 -37
3 c-37 3 -38 4 -44 49 -13 89 -49 119 -144 119 l-55 0 0 -120 c0 -113 1 -120
20 -120 25 0 60 34 60 59 0 37 12 51 41 51 l29 0 0 -150 0 -150 -29 0 c-25 0
-30 5 -36 33 -11 49 -32 77 -60 77 l-25 0 0 -135 0 -135 53 0 c74 0 119 25
134 75 7 22 15 61 18 88 6 46 7 47 41 47 l34 0 0 -150 0 -150 -240 0 -240 0 0
43 c0 34 4 44 23 52 l22 10 0 280 0 280 -22 10 c-19 8 -23 18 -23 52 l0 43
240 0 240 0 0 -131z m288 49 c16 -46 53 -150 82 -233 29 -82 57 -154 62 -159
12 -14 10 342 -2 365 -6 10 -20 19 -30 19 -17 0 -20 7 -20 45 l0 45 105 0 105
0 0 -43 c0 -34 -4 -44 -22 -52 l-23 -10 -3 -333 -2 -333 -72 3 -71 3 -96 270
-96 270 -3 -200 c-1 -110 0 -210 3 -222 3 -13 16 -25 30 -29 22 -5 25 -12 25
-50 l0 -44 -105 0 -105 0 0 43 c0 34 4 44 23 52 l22 10 0 280 0 280 -22 10
c-19 8 -23 18 -23 52 l0 43 104 0 104 0 30 -82z m832 -63 l0 -145 -40 0 -40 0
0 60 c0 93 -32 150 -84 150 -14 0 -16 -33 -16 -288 0 -211 3 -291 12 -300 7
-7 25 -12 41 -12 27 0 28 -2 25 -42 l-3 -43 -152 -3 -153 -3 0 46 c0 41 2 45
24 45 55 0 56 7 56 316 0 275 -1 284 -19 284 -11 0 -32 -10 -47 -23 -22 -19
-28 -36 -37 -105 l-11 -82 -33 0 -33 0 0 145 0 145 255 0 255 0 0 -145z
m-2522 52 c25 -36 28 -45 17 -60 -11 -16 -15 -15 -44 18 -30 34 -39 64 -24 78
13 13 22 7 51 -36z m-117 -112 c27 -39 75 -76 130 -99 27 -11 37 -12 36 -3 -2
54 1 57 52 57 64 0 95 12 132 52 31 35 38 25 14 -21 -19 -39 -71 -81 -107 -88
-18 -3 -25 -9 -18 -13 18 -11 -77 -88 -124 -101 -102 -28 -255 11 -327 84
l-32 31 34 29 c32 27 166 107 180 107 4 0 17 -16 30 -35z m-487 -67 c-15 -29
-38 -84 -50 -123 -18 -53 -23 -63 -24 -39 0 48 27 127 60 172 17 23 32 42 35
42 3 0 -7 -24 -21 -52z m926 2 c11 -11 20 -27 20 -35 0 -12 -12 -9 -56 13 -59
28 -58 30 9 41 4 0 16 -8 27 -19z m-640 -140 c59 -92 106 -124 258 -175 75
-25 142 -49 148 -53 26 -17 31 -45 19 -99 -7 -30 -15 -56 -18 -59 -2 -3 -49 3
-103 12 -55 9 -164 19 -244 24 -133 7 -220 24 -259 49 -12 8 -11 19 8 73 27
74 78 172 124 233 17 24 33 44 33 45 1 0 16 -23 34 -50z m147 -25 c31 -8 76
-15 99 -15 49 0 101 -20 163 -63 66 -45 131 -117 131 -144 0 -17 7 -24 28 -29
15 -3 56 -15 92 -27 l64 -22 -98 -3 c-88 -2 -102 -5 -128 -27 -29 -25 -58 -33
-58 -17 0 5 7 31 15 58 20 68 19 97 -7 122 -13 11 -84 42 -158 67 -128 45
-212 83 -225 105 -9 14 15 12 82 -5z m1500 -424 c47 -22 85 -73 104 -141 9
-29 13 -112 14 -235 0 -155 -3 -201 -18 -247 -24 -80 -66 -124 -134 -144 -99
-29 -189 0 -240 75 -41 61 -48 105 -48 316 0 214 10 270 57 331 49 61 179 84
265 45z m641 -128 l3 -133 -41 0 c-40 0 -40 0 -41 38 -1 98 -47 142 -146 142
l-53 0 0 -120 c0 -118 0 -120 23 -120 39 0 67 35 67 85 0 24 3 26 33 23 l32
-3 0 -150 0 -150 -31 -3 c-30 -3 -31 -1 -37 40 -6 45 -34 78 -68 78 -18 0 -19
-9 -19 -123 0 -127 6 -147 42 -147 15 0 18 -8 18 -45 l0 -45 -135 0 -135 0 0
45 c0 37 3 45 18 45 40 0 42 14 42 291 0 230 -2 270 -16 283 -8 9 -22 16 -30
16 -10 0 -14 12 -14 38 0 21 3 42 7 46 4 3 113 5 242 4 l236 -3 3 -132z m502
2 l0 -135 -39 0 -39 0 -4 60 c-6 87 -32 111 -127 118 l-71 5 0 -122 0 -121 29
0 c37 0 61 31 61 77 0 31 2 33 35 33 l35 0 0 -156 0 -155 -32 3 c-30 3 -33 7
-39 42 -7 42 -38 76 -70 76 -18 0 -19 -9 -19 -116 0 -127 8 -154 45 -154 23 0
25 -4 25 -45 l0 -45 -135 0 -135 0 0 43 c0 34 4 44 23 52 22 10 22 10 25 288
l2 277 -25 12 c-21 9 -25 18 -25 55 l0 43 240 0 240 0 0 -135z m394 -356 c48
-29 71 -37 79 -30 8 6 18 6 27 1 12 -7 11 -14 -5 -44 -11 -20 -22 -36 -25 -36
-3 0 -38 20 -79 46 -82 51 -105 53 -109 9 -3 -27 3 -33 53 -63 40 -24 59 -31
68 -23 8 6 18 6 27 1 12 -7 11 -14 -4 -42 -34 -63 -44 -72 -60 -59 -8 7 -12
19 -10 26 6 13 -45 51 -103 78 -21 9 -27 9 -31 -1 -3 -9 -9 -9 -23 -1 -19 10
-19 10 1 40 12 16 28 29 36 29 9 0 14 11 14 33 0 42 25 77 54 77 12 0 53 -18
90 -41z m-3039 -44 c22 0 54 4 70 8 19 5 25 4 16 -1 -9 -7 -11 -19 -7 -39 6
-25 3 -31 -19 -41 -44 -20 -55 -15 -55 22 0 32 -3 35 -38 41 -20 3 -44 10 -52
16 -10 7 -6 7 15 2 17 -4 48 -8 70 -8z m660 -65 c3 -6 -1 -7 -9 -4 -18 7 -21
14 -7 14 6 0 13 -4 16 -10z m2192 -130 c66 -52 84 -130 39 -175 -38 -38 -73
-42 -123 -15 -94 50 -113 161 -35 205 34 19 84 13 119 -15z m-245 -172 c78
-109 83 -114 102 -99 17 14 41 -11 32 -34 -7 -20 -50 -39 -70 -32 -9 4 -53 56
-98 117 -62 84 -86 109 -99 105 -34 -11 -33 18 2 47 32 27 35 27 47 11 7 -10
45 -62 84 -115z m-134 -84 c52 -90 72 -118 86 -116 9 2 24 -2 32 -9 13 -10 12
-14 -2 -30 -21 -23 -67 -25 -85 -3 -8 9 -41 64 -75 123 -42 75 -66 106 -79
106 -10 0 -20 5 -22 12 -5 15 58 56 70 44 4 -4 38 -61 75 -127z m-1378 59 c0
-7 11 -13 26 -13 88 0 103 -83 34 -179 -39 -53 -70 -66 -115 -46 -19 7 -35 19
-35 24 0 21 -20 11 -32 -15 -10 -20 -9 -27 2 -34 11 -7 11 -11 1 -24 -11 -13
-18 -11 -61 15 -33 20 -47 35 -43 45 3 8 13 12 23 9 13 -4 30 18 78 100 64
108 69 121 51 127 -5 2 -7 11 -4 20 6 16 9 16 41 1 19 -9 34 -23 34 -30z
m1223 -115 c14 -13 35 -51 47 -85 16 -45 27 -63 40 -63 10 0 21 -7 24 -15 6
-17 -35 -38 -63 -33 -9 2 -24 -7 -34 -19 -26 -33 -79 -31 -106 3 -12 15 -21
34 -21 43 0 25 28 59 64 79 29 15 32 20 25 41 -8 19 -14 22 -37 16 -15 -3 -34
-13 -43 -21 -14 -13 -18 -13 -29 1 -17 21 2 41 56 60 51 18 49 19 77 -7z
m-918 -12 c25 -11 36 -23 43 -48 7 -29 1 -92 -10 -104 -2 -2 -28 5 -56 16 -69
26 -82 25 -82 -4 0 -34 26 -56 66 -56 27 0 34 -4 34 -19 0 -11 -4 -22 -9 -26
-18 -11 -94 14 -119 38 -46 47 -24 158 40 197 39 24 48 24 93 6z m692 -71 c2
-16 10 -78 20 -137 24 -151 7 -178 -107 -178 -51 0 -64 8 -54 33 4 10 16 13
47 10 57 -6 82 12 72 55 -6 30 -8 31 -28 17 -55 -39 -120 5 -132 89 -14 90 28
145 99 133 21 -3 36 -2 36 4 0 6 10 9 23 7 16 -2 23 -10 24 -33z m-493 10 c12
-12 20 -13 35 -5 24 12 61 13 61 1 0 -26 -15 -41 -40 -41 -37 0 -46 -14 -54
-82 -6 -47 -5 -58 10 -66 10 -5 15 -16 11 -25 -4 -12 -14 -13 -49 -6 -24 4
-49 8 -55 9 -18 0 -16 40 1 40 21 0 23 6 31 83 6 58 5 67 -9 67 -9 0 -16 8
-16 20 0 15 7 20 29 20 16 0 37 -7 45 -15z"/>
<path d="M2136 2757 c-12 -9 -17 -23 -14 -42 2 -24 8 -31 31 -33 38 -5 57 14
57 54 0 31 -3 34 -28 34 -16 0 -36 -6 -46 -13z"/>
<path d="M2756 2881 c-3 -4 -10 -20 -15 -35 l-11 -26 54 0 c51 0 54 1 49 23
-3 12 -10 28 -16 35 -11 14 -53 16 -61 3z"/>
<path d="M1916 1601 c-37 -41 -46 -475 -11 -557 17 -42 50 -50 80 -19 34 33
37 64 33 316 -3 195 -5 229 -21 252 -21 32 -56 35 -81 8z"/>
<path d="M3292 933 c-13 -25 0 -54 42 -91 41 -36 71 -41 84 -14 13 24 0 53
-42 90 -41 36 -71 41 -84 15z"/>
<path d="M1617 693 c-51 -81 -52 -85 -27 -105 28 -22 50 -12 85 40 27 40 32
71 13 90 -22 22 -47 13 -71 -25z"/>
<path d="M2830 530 c-24 -24 -24 -30 -7 -54 15 -21 51 -15 61 9 7 19 -10 65
-24 65 -5 0 -19 -9 -30 -20z"/>
<path d="M1887 602 c-10 -10 -17 -21 -17 -24 0 -6 56 -28 71 -28 16 0 10 58
-7 64 -24 9 -29 8 -47 -12z"/>
<path d="M2532 548 c-16 -16 -15 -100 1 -122 9 -12 23 -17 42 -14 l30 3 -3 64
c-1 38 -7 68 -15 73 -18 11 -41 10 -55 -4z"/>
</g>
</svg>
