<?xml version="1.0" standalone="no"?>
<!DOCTYPE svg PUBLIC "-//W3C//DTD SVG 20010904//EN"
 "http://www.w3.org/TR/2001/REC-SVG-20010904/DTD/svg10.dtd">
<svg version="1.0" xmlns="http://www.w3.org/2000/svg"
 width="1000.000000pt" height="1000.000000pt" viewBox="0 0 1000.000000 1000.000000"
 preserveAspectRatio="xMidYMid meet">
<metadata>
Created by potrace 1.11, written by Peter Selinger 2001-2013
</metadata>
<g transform="translate(0.000000,1000.000000) scale(0.100000,-0.100000)"
fill="#000000" stroke="none">
<path d="M8070 8503 c-974 -44 -1687 -102 -2440 -199 -1394 -178 -2530 -440
-3515 -809 -417 -157 -713 -286 -1277 -560 l-367 -178 -35 -96 c-41 -111 -106
-314 -102 -318 3 -3 21 4 441 167 886 344 1409 514 2120 690 1090 270 2476
480 3650 555 698 44 1767 44 2398 0 105 -8 106 -19 -9 137 -108 145 -246 308
-402 475 l-133 143 -132 -2 c-73 -1 -161 -3 -197 -5z"/>
<path d="M3555 6681 c-347 -143 -411 -173 -418 -192 -16 -50 -987 -4495 -984
-4509 2 -11 108 -32 482 -92 263 -42 480 -76 482 -74 2 1 129 562 284 1247
293 1301 287 1274 294 1268 2 -3 196 -578 431 -1279 234 -701 429 -1280 433
-1287 4 -7 140 31 437 125 l431 137 433 1150 c239 633 439 1161 446 1175 15
31 -7 152 244 -1310 116 -673 212 -1226 214 -1227 1 -1 227 33 501 75 403 62
500 80 503 93 3 16 -865 4859 -872 4866 -7 8 -829 -335 -837 -348 -5 -10
-1019 -2671 -1055 -2769 -10 -28 52 -214 -639 1925 -394 1222 -385 1195 -393
1195 -4 -1 -191 -77 -417 -169z"/>
</g>
</svg>
